<?xml version="1.0" encoding="UTF-8"?>
<svg width="43px" height="42px" viewBox="0 0 43 42" version="1.1" xmlns="http://www.w3.org/2000/svg" xmlns:xlink="http://www.w3.org/1999/xlink">
    <!-- Generator: Sketch 48.1 (47250) - http://www.bohemiancoding.com/sketch -->
    <title>Star</title>
    <desc>Created with Sketch.</desc>
    <defs>
        <linearGradient x1="73.2032834%" y1="9.50906463%" x2="25.0846058%" y2="110.096955%" id="linearGradient-1">
            <stop stop-color="#EDAD15" offset="0%"></stop>
            <stop stop-color="#F96A89" offset="100%"></stop>
            <stop stop-color="#FF6985" offset="100%"></stop>
        </linearGradient>
    </defs>
    <g stroke="none" stroke-width="1" fill="none" fill-rule="evenodd" transform="translate(-129.000000, -922.000000)">
        <path d="M149.999862,954.106514 L139.17858,959.771508 C138.199995,960.283802 136.991399,959.905799 136.479105,958.927214 C136.275436,958.538165 136.205473,958.092899 136.280013,957.660137 L138.344495,945.674252 L129.607026,937.193388 C128.814425,936.424065 128.795555,935.157875 129.564878,934.365275 C129.872526,934.048319 130.276446,933.842124 130.713604,933.778871 L142.796449,932.030565 L148.207885,921.112228 C148.698399,920.122546 149.898335,919.717891 150.888017,920.208405 C151.280044,920.402705 151.59754,920.7202 151.791839,921.112228 L157.203275,932.030565 L169.28612,933.778871 C170.379306,933.937047 171.13728,934.951476 170.979103,936.044661 C170.91585,936.48182 170.709655,936.88574 170.392699,937.193388 L161.655229,945.674252 L163.719712,957.660137 C163.907205,958.748677 163.176762,959.783107 162.088221,959.9706 C161.655459,960.04514 161.210193,959.975177 160.821144,959.771508 L149.999862,954.106514 Z" id="Star" fill="url(#linearGradient-1)" transform="translate(149.999991, 939.999985) rotate(-30.000000) translate(-149.999991, -939.999985) "></path>
    </g>
</svg>