<?xml version="1.0" encoding="UTF-8"?>
<svg width="27px" height="26px" viewBox="0 0 27 26" version="1.1" xmlns="http://www.w3.org/2000/svg" xmlns:xlink="http://www.w3.org/1999/xlink">
    <!-- Generator: Sketch 48.1 (47250) - http://www.bohemiancoding.com/sketch -->
    <title>Star Copy</title>
    <desc>Created with Sketch.</desc>
    <defs>
        <linearGradient x1="73.2032834%" y1="9.50906463%" x2="25.0846058%" y2="110.096955%" id="linearGradient-1">
            <stop stop-color="#EDAD15" offset="0%"></stop>
            <stop stop-color="#F96A89" offset="100%"></stop>
            <stop stop-color="#FF6985" offset="100%"></stop>
        </linearGradient>
    </defs>
    <g id="openpitrix官网页面" stroke="none" stroke-width="1" fill="none" fill-rule="evenodd" transform="translate(-184.000000, -1067.000000)">
        <path d="M195.999888,1087.67532 L190.141436,1090.76826 C189.164638,1091.28395 187.954735,1090.91015 187.43904,1089.93335 C187.233358,1089.54376 187.162066,1089.09716 187.236236,1088.66289 L188.357269,1082.09926 L183.600785,1077.44332 C182.811439,1076.67066 182.797913,1075.4044 183.570574,1074.61506 C183.876959,1074.30206 184.277623,1074.09829 184.711031,1074.03504 L191.27649,1073.07701 L194.204945,1067.11834 C194.69214,1066.12702 195.890713,1065.71834 196.882033,1066.20554 C197.278828,1066.40055 197.599822,1066.72154 197.794831,1067.11834 L200.723287,1073.07701 L207.288746,1074.03504 C208.38174,1074.19453 209.138495,1075.20987 208.979005,1076.30287 C208.915763,1076.73627 208.711993,1077.13694 208.398991,1077.44332 L203.642508,1082.09926 L204.76354,1088.66289 C204.949502,1089.7517 204.217604,1090.7851 203.128801,1090.97106 C202.694536,1091.04523 202.247933,1090.97394 201.858341,1090.76826 L195.999888,1087.67532 Z" id="Star-Copy" fill="url(#linearGradient-1)" transform="translate(196.000019, 1078.500021) rotate(-42.000000) translate(-196.000019, -1078.500021) "></path>
    </g>
</svg>