<?xml version="1.0" encoding="UTF-8"?>
<svg width="37px" height="38px" viewBox="0 0 37 38" version="1.1" xmlns="http://www.w3.org/2000/svg" xmlns:xlink="http://www.w3.org/1999/xlink">
    <!-- Generator: Sketch 48.1 (47250) - http://www.bohemiancoding.com/sketch -->
    <title>Star Copy 2</title>
    <desc>Created with Sketch.</desc>
    <defs>
        <linearGradient x1="32.1416744%" y1="128.441629%" x2="85.5192959%" y2="0%" id="linearGradient-1">
            <stop stop-color="#4D15ED" offset="0%"></stop>
            <stop stop-color="#F96A89" offset="100%"></stop>
            <stop stop-color="#FF6985" offset="100%"></stop>
        </linearGradient>
    </defs>
    <g id="openpitrix官网页面" stroke="none" stroke-width="1" fill="none" fill-rule="evenodd" transform="translate(-464.000000, -818.000000)">
        <path d="M482.499824,847.80966 L473.279794,852.761452 C472.306687,853.284078 471.094157,852.918891 470.571532,851.945784 C470.361695,851.555077 470.287671,851.105706 470.361103,850.668337 L472.132895,840.115209 L464.588519,832.602664 C463.805821,831.823269 463.803144,830.556941 464.58254,829.774243 C464.886267,829.46923 465.280294,829.270345 465.706073,829.207142 L476.092709,827.665326 L480.698969,818.130743 C481.179463,817.136158 482.375251,816.719405 483.369836,817.1999 C483.776267,817.396251 484.104327,817.724312 484.300679,818.130743 L488.906938,827.665326 L499.293574,829.207142 C500.386171,829.369329 501.140417,830.386533 500.97823,831.479131 C500.915026,831.90491 500.716141,832.298938 500.411128,832.602664 L492.866752,840.115209 L494.638545,850.668337 C494.821434,851.75766 494.086624,852.788992 492.997301,852.971881 C492.559932,853.045313 492.110561,852.971289 491.719853,852.761452 L482.499824,847.80966 Z" id="Star-Copy-2" fill="url(#linearGradient-1)" transform="translate(482.499958, 835.000087) rotate(26.000000) translate(-482.499958, -835.000087) "></path>
    </g>
</svg>