<?xml version="1.0" encoding="UTF-8"?>
<svg width="88px" height="99px" viewBox="0 0 88 99" version="1.1" xmlns="http://www.w3.org/2000/svg" xmlns:xlink="http://www.w3.org/1999/xlink">
    <!-- Generator: Sketch 48.1 (47250) - http://www.bohemiancoding.com/sketch -->
    <title>Group 64</title>
    <desc>Created with Sketch.</desc>
    <defs>
        <linearGradient x1="50%" y1="0%" x2="50%" y2="100%" id="linearGradient-1">
            <stop stop-color="#E3DFE6" offset="0%"></stop>
            <stop stop-color="#B0A2C1" offset="100%"></stop>
        </linearGradient>
        <linearGradient x1="27.969507%" y1="88.147346%" x2="80.2789187%" y2="-16.6882286%" id="linearGradient-2">
            <stop stop-color="#EEECEF" offset="0%"></stop>
            <stop stop-color="#FAFAFA" offset="100%"></stop>
        </linearGradient>
        <linearGradient x1="125.900483%" y1="61.2158321%" x2="17.8515055%" y2="73.9745062%" id="linearGradient-3">
            <stop stop-color="#BDAFCA" offset="0%"></stop>
            <stop stop-color="#846BA0" offset="100%"></stop>
        </linearGradient>
        <linearGradient x1="50%" y1="-17.7082907%" x2="50%" y2="99.1015172%" id="linearGradient-4">
            <stop stop-color="#774F98" stop-opacity="0.798884737" offset="0%"></stop>
            <stop stop-color="#300E56" stop-opacity="0.745499321" offset="100%"></stop>
        </linearGradient>
    </defs>
    <g stroke="none" stroke-width="1" fill="none" fill-rule="evenodd" transform="translate(-250.000000, -3684.000000)">
        <g id="Group-64" transform="translate(242.000000, 3676.000000)">
            <g id="Group-35">
                <polygon id="Rectangle-54-Copy" fill="url(#linearGradient-1)" transform="translate(32.485441, 40.129521) rotate(-319.000000) translate(-32.485441, -40.129521) " points="22.5771863 6.55213305 46.3033723 20.018764 42.3936964 73.7069085 18.6675103 60.2402776"></polygon>
                <polygon id="Rectangle-54-Copy" fill="url(#linearGradient-2)" transform="translate(73.022001, 36.899264) scale(-1, 1) rotate(-319.000000) translate(-73.022001, -36.899264) " points="74.0103063 -1.44316438 83.9735893 23.4604969 76.554429 75.241693 62.070413 47.1675823"></polygon>
                <polygon id="Rectangle-54" fill="url(#linearGradient-3)" transform="translate(56.824592, 70.102100) rotate(-319.000000) translate(-56.824592, -70.102100) " points="32.4420531 43.2580281 85.1168064 43.2580281 81.2071304 96.9461726 28.5323771 96.9461726"></polygon>
            </g>
            <path d="M49.4638672,74.0205078 L44.5068359,74.0205078 L43.4697266,77 L41.1582031,77 L45.9921875,64.203125 L47.9873047,64.203125 L52.8300781,77 L50.5097656,77 L49.4638672,74.0205078 Z M45.1308594,72.2275391 L48.8398438,72.2275391 L46.9853516,66.9189453 L45.1308594,72.2275391 Z M56.5039062,72.2451172 L56.5039062,77 L54.2802734,77 L54.2802734,64.203125 L59.1757812,64.203125 C60.6054759,64.203125 61.7407185,64.5751916 62.581543,65.3193359 C63.4223675,66.0634803 63.8427734,67.0478454 63.8427734,68.2724609 C63.8427734,69.5263735 63.4311565,70.5019496 62.6079102,71.1992188 C61.7846639,71.8964879 60.6318433,72.2451172 59.1494141,72.2451172 L56.5039062,72.2451172 Z M56.5039062,70.4609375 L59.1757812,70.4609375 C59.9668008,70.4609375 60.5703104,70.2749042 60.9863281,69.902832 C61.4023458,69.5307599 61.6103516,68.9931676 61.6103516,68.2900391 C61.6103516,67.5986294 61.3994162,67.0463888 60.9775391,66.6333008 C60.555662,66.2202128 59.9755896,66.0078126 59.2373047,65.9960938 L56.5039062,65.9960938 L56.5039062,70.4609375 Z M68.0087891,72.2451172 L68.0087891,77 L65.7851562,77 L65.7851562,64.203125 L70.6806641,64.203125 C72.1103587,64.203125 73.2456013,64.5751916 74.0864258,65.3193359 C74.9272503,66.0634803 75.3476562,67.0478454 75.3476562,68.2724609 C75.3476562,69.5263735 74.9360393,70.5019496 74.112793,71.1992188 C73.2895467,71.8964879 72.1367262,72.2451172 70.6542969,72.2451172 L68.0087891,72.2451172 Z M68.0087891,70.4609375 L70.6806641,70.4609375 C71.4716836,70.4609375 72.0751932,70.2749042 72.4912109,69.902832 C72.9072286,69.5307599 73.1152344,68.9931676 73.1152344,68.2900391 C73.1152344,67.5986294 72.904299,67.0463888 72.4824219,66.6333008 C72.0605448,66.2202128 71.4804724,66.0078126 70.7421875,65.9960938 L68.0087891,65.9960938 L68.0087891,70.4609375 Z" id="APP" fill="url(#linearGradient-4)" transform="translate(58.252930, 70.601562) rotate(41.000000) translate(-58.252930, -70.601562) "></path>
        </g>
    </g>
</svg>