<?xml version="1.0" encoding="UTF-8"?>
<svg width="68px" height="82px" viewBox="0 0 68 82" version="1.1" xmlns="http://www.w3.org/2000/svg" xmlns:xlink="http://www.w3.org/1999/xlink">
    <!-- Generator: Sketch 48.1 (47250) - http://www.bohemiancoding.com/sketch -->
    <title>Group 35 Copy 2</title>
    <desc>Created with Sketch.</desc>
    <defs>
        <linearGradient x1="130.514462%" y1="41.327241%" x2="-13.7123542%" y2="44.4888634%" id="linearGradient-1">
            <stop stop-color="#5A496C" offset="0%"></stop>
            <stop stop-color="#9C8AB1" offset="100%"></stop>
        </linearGradient>
        <linearGradient x1="30.1997653%" y1="0%" x2="93.3239835%" y2="198.272981%" id="linearGradient-2">
            <stop stop-color="#EEECEF" offset="0%"></stop>
            <stop stop-color="#FAFAFA" offset="100%"></stop>
        </linearGradient>
    </defs>
    <g id="openpitrix官网页面" stroke="none" stroke-width="1" fill="none" fill-rule="evenodd" transform="translate(-151.000000, -3765.000000)">
        <g id="Group-35-Copy-2" transform="translate(184.333264, 3805.870590) rotate(-165.000000) translate(-184.333264, -3805.870590) translate(137.833264, 3757.870590)">
            <polygon id="Rectangle-54-Copy" fill="url(#linearGradient-1)" transform="translate(28.716488, 34.463894) rotate(-319.000000) translate(-28.716488, -34.463894) " points="20.8593755 4.1888087 40.2894539 17.2635352 36.8213338 64.73898 17.1435224 51.4975511"></polygon>
            <polygon id="Rectangle-54-Copy" fill="#BBB0C7" transform="translate(63.747111, 31.861752) scale(-1, 1) rotate(-319.000000) translate(-63.747111, -31.861752) " points="62.9466319 -1.12693261 73.1900314 19.8254277 66.5987534 64.8504367 54.3041903 39.7025237"></polygon>
            <polygon id="Rectangle-54" fill="url(#linearGradient-2)" transform="translate(49.178341, 60.772885) rotate(-319.000000) translate(-49.178341, -60.772885) " points="27.9420942 36.8201338 73.8197651 36.8201338 67.7629599 82.8804196 24.5369178 84.7256365"></polygon>
        </g>
    </g>
</svg>