<?xml version="1.0" encoding="UTF-8"?>
<svg width="137px" height="124px" viewBox="0 0 137 124" version="1.1" xmlns="http://www.w3.org/2000/svg" xmlns:xlink="http://www.w3.org/1999/xlink">
    <!-- Generator: Sketch 48.1 (47250) - http://www.bohemiancoding.com/sketch -->
    <title>Group 62</title>
    <desc>Created with Sketch.</desc>
    <defs>
        <linearGradient x1="96.7313794%" y1="-10.5488546%" x2="34.6538996%" y2="104.987112%" id="linearGradient-1">
            <stop stop-color="#DED8E4" offset="0%"></stop>
            <stop stop-color="#B9B0C5" offset="100%"></stop>
        </linearGradient>
        <linearGradient x1="94.9158623%" y1="-45.0897323%" x2="30.1855854%" y2="155.171669%" id="linearGradient-2">
            <stop stop-color="#F5F0FA" offset="0%"></stop>
            <stop stop-color="#E7DDF4" offset="100%"></stop>
        </linearGradient>
        <linearGradient x1="6.00556215%" y1="50%" x2="66.9607545%" y2="74.7425789%" id="linearGradient-3">
            <stop stop-color="#776788" offset="0%"></stop>
            <stop stop-color="#9287A0" offset="100%"></stop>
        </linearGradient>
        <linearGradient x1="50%" y1="100%" x2="61.7118213%" y2="-69.8994676%" id="linearGradient-4">
            <stop stop-color="#3D1A5A" offset="0%"></stop>
            <stop stop-color="#F1376F" offset="100%"></stop>
        </linearGradient>
        <path d="M62.8871303,78.0350088 L59.0316615,78.0350088 L59.0316615,85.7049307 L55.5726772,85.7049307 L55.5726772,65.7986807 L62.5726772,65.7986807 C64.8695637,65.7986807 66.6423324,66.3136495 67.8910365,67.3436026 C69.1397407,68.3735556 69.7640834,69.8637751 69.7640834,71.8143057 C69.7640834,73.1450415 69.4427976,74.2592882 68.8002162,75.1570791 C68.1576349,76.0548701 67.262136,76.7452929 66.1136928,77.2283682 L70.5843959,85.5271963 L70.5843959,85.7049307 L66.8793178,85.7049307 L62.8871303,78.0350088 Z M59.0316615,75.2596182 L62.586349,75.2596182 C63.7530215,75.2596182 64.6644708,74.9656758 65.320724,74.3777822 C65.9769773,73.7898887 66.305099,72.9855347 66.305099,71.9646963 C66.305099,70.8982847 66.0020422,70.0734232 65.3959194,69.4900869 C64.7897965,68.9067507 63.8851832,68.6059724 62.6820522,68.5877432 L59.0316615,68.5877432 L59.0316615,75.2596182 Z M79.9243171,84.7414691 C77.8188379,84.7414691 76.1121492,84.0783898 74.8041999,82.7522113 C73.4962507,81.4260328 72.8422859,79.6601 72.8422859,77.4543598 L72.8422859,77.0442035 C72.8422859,75.5676336 73.1271138,74.2483109 73.6967781,73.0861957 C74.2664424,71.9240805 75.0662391,71.0194672 76.0961921,70.3723285 C77.1261452,69.7251899 78.2745712,69.4016254 79.5415046,69.4016254 C81.5558376,69.4016254 83.1121372,70.0441971 84.2104499,71.3293598 C85.3087627,72.6145224 85.8579109,74.4328636 85.8579109,76.7844379 L85.8579109,78.1242816 L76.1918953,78.1242816 C76.2921562,79.3456419 76.7000297,80.3117781 77.4155281,81.0227191 C78.1310264,81.7336602 79.0310825,82.0891254 80.1157234,82.0891254 C81.6378664,82.0891254 82.8774374,81.4738972 83.8344734,80.2434223 L85.625489,81.9524066 C85.0330381,82.8365256 84.2423559,83.5223912 83.2534187,84.0100238 C82.2644815,84.4976565 81.154792,84.7414691 79.9243171,84.7414691 Z M79.5278328,72.067641 C78.6163699,72.067641 77.8803746,72.3866482 77.3198249,73.0246723 C76.7592753,73.6626963 76.4015315,74.5513593 76.2465828,75.6906879 L82.5766609,75.6906879 L82.5766609,75.4445941 C82.5037439,74.3326094 82.2075229,73.4917975 81.687989,72.9221332 C81.1684552,72.3524689 80.4484103,72.067641 79.5278328,72.067641 Z M102.074785,75.9850388 C102.074785,78.2728107 101.555259,80.0979877 100.516191,81.4606248 C99.4771238,82.8232618 98.0826065,83.5045701 96.3325977,83.5045701 C94.7101938,83.5045701 93.4113786,82.9713723 92.4361134,81.9049607 L92.4361134,88.9186326 L89.1138477,88.9186326 L89.1138477,68.4381638 L92.1763477,68.4381638 L92.3130665,69.9420701 C93.2883318,68.7571683 94.6144904,68.1647263 96.2915821,68.1647263 C98.0962786,68.1647263 99.5113035,68.8369201 100.536699,70.1813279 C101.562095,71.5257357 102.074785,73.3919279 102.074785,75.7799607 L102.074785,75.9850388 Z M98.7661915,75.6979295 C98.7661915,74.2213596 98.4722491,73.0501473 97.8843555,72.1842576 C97.296462,71.3183678 96.4556501,70.8854295 95.3618946,70.8854295 C94.0038149,70.8854295 93.0285642,71.4459707 92.4361134,72.5670701 L92.4361134,79.1295701 C93.0376789,80.2780133 94.022044,80.8522263 95.3892384,80.8522263 C96.4465353,80.8522263 97.2736755,80.4261238 97.8706837,79.573906 C98.4676919,78.7216882 98.7661915,77.4297089 98.7661915,75.6979295 Z M104.94791,74.4610304 C104.94791,73.0118044 105.235016,71.7061534 105.809238,70.5440382 C106.383459,69.381923 107.190092,68.4887028 108.22916,67.8643507 C109.268227,67.2399986 110.462226,66.9278273 111.811191,66.9278273 C113.807295,66.9278273 115.427396,67.570399 116.671542,68.8555617 C117.915689,70.1407243 118.587883,71.8451344 118.688144,73.9688429 L118.701816,74.7481398 C118.701816,76.2064804 118.421545,77.5098528 117.860996,78.658296 C117.300446,79.8067393 116.498371,80.6954023 115.454746,81.3243117 C114.41112,81.9532211 113.205729,82.267671 111.838535,82.267671 C109.751285,82.267671 108.081054,81.572691 106.827792,80.1827101 C105.574531,78.7927292 104.94791,76.9402086 104.94791,74.6250929 L104.94791,74.4610304 Z M108.270175,74.7481398 C108.270175,76.2702828 108.584625,77.4620027 109.213535,78.3233351 C109.842444,79.1846675 110.717435,79.6153273 111.838535,79.6153273 C112.959634,79.6153273 113.832347,79.1778317 114.456699,78.3028273 C115.081051,77.4278229 115.393222,76.1472368 115.393222,74.4610304 C115.393222,72.9662313 115.071936,71.7813473 114.429355,70.9063429 C113.786774,70.0313385 112.914061,69.5938429 111.811191,69.5938429 C110.72655,69.5938429 109.86523,70.0245027 109.227206,70.8858351 C108.589182,71.7471675 108.270175,73.0345895 108.270175,74.7481398 Z" id="path-5"></path>
        <filter x="-0.8%" y="-2.2%" width="101.6%" height="104.3%" filterUnits="objectBoundingBox" id="filter-6">
            <feOffset dx="0" dy="1" in="SourceAlpha" result="shadowOffsetInner1"></feOffset>
            <feComposite in="shadowOffsetInner1" in2="SourceAlpha" operator="arithmetic" k2="-1" k3="1" result="shadowInnerInner1"></feComposite>
            <feColorMatrix values="0 0 0 0 0.176699523   0 0 0 0 0.05497985   0 0 0 0 0.312739158  0 0 0 0.82 0" type="matrix" in="shadowInnerInner1"></feColorMatrix>
        </filter>
        <linearGradient x1="25.8809201%" y1="23.5105313%" x2="47.591906%" y2="69.0107333%" id="linearGradient-7">
            <stop stop-color="#6133C4" offset="0%"></stop>
            <stop stop-color="#E8AEF1" stop-opacity="0.469967165" offset="100%"></stop>
        </linearGradient>
        <linearGradient x1="12.0805155%" y1="9.47910136%" x2="47.591906%" y2="69.0107333%" id="linearGradient-8">
            <stop stop-color="#6133C4" stop-opacity="0.766474185" offset="0%"></stop>
            <stop stop-color="#E8AEF1" stop-opacity="0.469967165" offset="100%"></stop>
        </linearGradient>
    </defs>
    <g id="openpitrix官网页面" stroke="none" stroke-width="1" fill="none" fill-rule="evenodd" transform="translate(-265.000000, -3832.000000)">
        <g id="Group-62" transform="translate(259.000000, 3827.000000)">
            <g id="Group-39">
                <g id="Group-34">
                    <polygon id="Rectangle-48" fill="url(#linearGradient-1)" transform="translate(83.723469, 73.727221) rotate(13.000000) translate(-83.723469, -73.727221) " points="44.6573373 26.9213913 133.160987 26.8146495 122.789601 120.53305 34.285952 120.639792"></polygon>
                    <path d="M65.4332071,11.9688646 L110.092771,12.0011275 L145.532073,27.9544718 L56.9996074,28.0913944 L44.4999332,21.1836153 C48.3519828,18.7259496 51.3118103,17.0491988 53.3794158,16.1533632 C55.4470213,15.2575275 59.4649517,13.8626946 65.4332071,11.9688646 Z" id="Rectangle-48-Copy" fill="url(#linearGradient-2)" transform="translate(95.016003, 20.030130) rotate(13.000000) translate(-95.016003, -20.030130) "></path>
                    <path d="M-21.4338953,51.7651889 L71.7388,38.2274759 L79.1834215,50.4572918 C75.4375365,55.1051876 71.8697949,58.7826127 68.4801968,61.489567 C65.0905986,64.1965214 59.7829857,67.6070102 52.5573578,71.7210335 L14.0489699,77.2965327 L-21.4338953,51.7651889 Z" id="Rectangle-48-Copy" fill="url(#linearGradient-3)" transform="translate(28.874763, 57.762004) scale(-1, 1) rotate(-101.000000) translate(-28.874763, -57.762004) "></path>
                </g>
                <g id="Repo" transform="translate(87.137246, 77.358657) rotate(-345.000000) translate(-87.137246, -77.358657) ">
                    <use fill="url(#linearGradient-4)" fill-rule="evenodd" xlink:href="#path-5"></use>
                    <use fill="black" fill-opacity="1" filter="url(#filter-6)" xlink:href="#path-5"></use>
                </g>
            </g>
            <path d="M18.6048173,31.8179248 L12.0947346,54.0042487 C18.8677558,42.6754705 26.3001159,37.0110813 34.3918151,37.0110813 C46.5293639,37.0110813 44.7452181,23.610194 58.6726506,17.7451612 C72.600083,11.8801285 77.986854,9.29024289 93.5881754,12.0826824 C103.989056,13.9443088 95.0531247,11.761084 66.7803806,5.53300797 C53.6298426,6.3212129 44.3954678,8.50443772 39.0772562,12.0826824 C33.7590447,15.6609271 26.9348984,22.2393412 18.6048173,31.8179248 Z" id="Path-13" fill="url(#linearGradient-7)"></path>
            <path d="M18.6048173,31.8179248 L9.06031487,62.4492513 C25.9767028,38.9665486 38.4807464,27.2251973 46.5724455,27.2251973 C58.7099943,27.2251973 70.0443427,28.076324 80.6082009,19.2283315 C85.8156162,14.866746 81.2063428,10.3016381 66.7803806,5.53300797 C53.6298426,6.3212129 44.3954678,8.50443772 39.0772562,12.0826824 C33.7590447,15.6609271 26.9348984,22.2393412 18.6048173,31.8179248 Z" id="Path-13" fill="url(#linearGradient-8)" opacity="0.5"></path>
        </g>
    </g>
</svg>