<?xml version="1.0" encoding="UTF-8"?>
<svg width="141px" height="127px" viewBox="0 0 141 127" version="1.1" xmlns="http://www.w3.org/2000/svg" xmlns:xlink="http://www.w3.org/1999/xlink">
    <!-- Generator: Sketch 48.1 (47250) - http://www.bohemiancoding.com/sketch -->
    <title>Group 40</title>
    <desc>Created with Sketch.</desc>
    <defs>
        <linearGradient x1="121.489026%" y1="-249.580385%" x2="30.1855854%" y2="155.171669%" id="linearGradient-1">
            <stop stop-color="#F7F6F8" offset="0%"></stop>
            <stop stop-color="#ECEAF0" offset="100%"></stop>
        </linearGradient>
        <linearGradient x1="36.8646939%" y1="136.267914%" x2="85.4067897%" y2="5.69818408%" id="linearGradient-2">
            <stop stop-color="#776788" offset="0%"></stop>
            <stop stop-color="#9287A0" offset="100%"></stop>
        </linearGradient>
        <linearGradient x1="96.7313794%" y1="-10.5488546%" x2="25.7541396%" y2="100%" id="linearGradient-3">
            <stop stop-color="#E8E3EC" offset="0%"></stop>
            <stop stop-color="#C7BFD2" offset="100%"></stop>
        </linearGradient>
        <linearGradient x1="51.7845671%" y1="138.434248%" x2="62.5172968%" y2="-68.5905868%" id="linearGradient-4">
            <stop stop-color="#3D1A5A" offset="0%"></stop>
            <stop stop-color="#F1376F" offset="100%"></stop>
        </linearGradient>
        <path d="M45.3369141,70.9736328 L42.3076172,70.9736328 L42.3076172,77 L39.5898438,77 L39.5898438,61.359375 L45.0898438,61.359375 C46.8945403,61.359375 48.28743,61.7639933 49.2685547,62.5732422 C50.2496794,63.382491 50.7402344,64.5533778 50.7402344,66.0859375 C50.7402344,67.1315156 50.4877955,68.0069952 49.9829102,68.7124023 C49.4780248,69.4178095 48.7744186,69.9602846 47.8720703,70.3398438 L51.3847656,76.8603516 L51.3847656,77 L48.4736328,77 L45.3369141,70.9736328 Z M42.3076172,68.7929688 L45.1005859,68.7929688 C46.0172572,68.7929688 46.7333959,68.562014 47.2490234,68.1000977 C47.764651,67.6381813 48.0224609,67.0061889 48.0224609,66.2041016 C48.0224609,65.3662067 47.7843448,64.7181013 47.3081055,64.2597656 C46.8318661,63.80143 46.1210985,63.5651042 45.1757812,63.5507812 L42.3076172,63.5507812 L42.3076172,68.7929688 Z M60.1074219,75.8613281 C59.341142,76.7636764 58.2526112,77.2148438 56.8417969,77.2148438 C55.5813739,77.2148438 54.6271191,76.8460323 53.9790039,76.1083984 C53.3308887,75.3707645 53.0068359,74.3037179 53.0068359,72.9072266 L53.0068359,65.3769531 L55.6171875,65.3769531 L55.6171875,72.875 C55.6171875,74.3502678 56.2294861,75.0878906 57.4541016,75.0878906 C58.721686,75.0878906 59.5774717,74.6331426 60.0214844,73.7236328 L60.0214844,65.3769531 L62.6318359,65.3769531 L62.6318359,77 L60.171875,77 L60.1074219,75.8613281 Z M67.7128906,65.3769531 L67.7880859,66.7197266 C68.6474652,65.6813099 69.7753836,65.1621094 71.171875,65.1621094 C73.59246,65.1621094 74.8242185,66.5478377 74.8671875,69.3193359 L74.8671875,77 L72.2568359,77 L72.2568359,69.4697266 C72.2568359,68.7320927 72.0974951,68.1860369 71.7788086,67.831543 C71.4601221,67.477049 70.9391312,67.2998047 70.2158203,67.2998047 C69.1630807,67.2998047 68.3789088,67.7760369 67.8632812,68.7285156 L67.8632812,77 L65.2529297,77 L65.2529297,65.3769531 L67.7128906,65.3769531 Z M80.796875,62.5517578 L80.796875,65.3769531 L82.8486328,65.3769531 L82.8486328,67.3105469 L80.796875,67.3105469 L80.796875,73.7988281 C80.796875,74.2428408 80.884602,74.5633128 81.0600586,74.7602539 C81.2355152,74.957195 81.5488259,75.0556641 82,75.0556641 C82.3007828,75.0556641 82.6051417,75.0198571 82.9130859,74.9482422 L82.9130859,76.9677734 C82.3186819,77.1324878 81.745771,77.2148438 81.1943359,77.2148438 C79.1891176,77.2148438 78.1865234,76.1084095 78.1865234,73.8955078 L78.1865234,67.3105469 L76.2744141,67.3105469 L76.2744141,65.3769531 L78.1865234,65.3769531 L78.1865234,62.5517578 L80.796875,62.5517578 Z M87.6181641,77 L85.0078125,77 L85.0078125,65.3769531 L87.6181641,65.3769531 L87.6181641,77 Z M84.8466797,62.3583984 C84.8466797,61.9573548 84.9737943,61.6243503 85.2280273,61.359375 C85.4822604,61.0943997 85.8457008,60.9619141 86.3183594,60.9619141 C86.791018,60.9619141 87.1562487,61.0943997 87.4140625,61.359375 C87.6718763,61.6243503 87.8007812,61.9573548 87.8007812,62.3583984 C87.8007812,62.7522806 87.6718763,63.0799141 87.4140625,63.3413086 C87.1562487,63.6027031 86.791018,63.7333984 86.3183594,63.7333984 C85.8457008,63.7333984 85.4822604,63.6027031 85.2280273,63.3413086 C84.9737943,63.0799141 84.8466797,62.7522806 84.8466797,62.3583984 Z M92.9140625,65.3769531 L92.9892578,66.5908203 C93.8056681,65.6383416 94.9228445,65.1621094 96.3408203,65.1621094 C97.8948645,65.1621094 98.9583305,65.7565045 99.53125,66.9453125 C100.376306,65.7565045 101.565097,65.1621094 103.097656,65.1621094 C104.379564,65.1621094 105.333818,65.516598 105.960449,66.2255859 C106.58708,66.9345739 106.907552,67.9801363 106.921875,69.3623047 L106.921875,77 L104.311523,77 L104.311523,69.4375 C104.311523,68.6998661 104.150392,68.1591814 103.828125,67.8154297 C103.505858,67.471678 102.972334,67.2998047 102.227539,67.2998047 C101.633135,67.2998047 101.147951,67.4591455 100.771973,67.777832 C100.395994,68.0965185 100.132813,68.5136693 99.9824219,69.0292969 L99.9931641,77 L97.3828125,77 L97.3828125,69.3515625 C97.347005,67.9837171 96.6487698,67.2998047 95.2880859,67.2998047 C94.2425078,67.2998047 93.5013043,67.7259072 93.0644531,68.578125 L93.0644531,77 L90.4541016,77 L90.4541016,65.3769531 L92.9140625,65.3769531 Z M114.720703,77.2148438 C113.066398,77.2148438 111.725428,76.6938529 110.697754,75.6518555 C109.670079,74.6098581 109.15625,73.2223394 109.15625,71.4892578 L109.15625,71.1669922 C109.15625,70.0068301 109.380043,68.9702194 109.827637,68.0571289 C110.27523,67.1440384 110.903642,66.4332708 111.712891,65.9248047 C112.522139,65.4163386 113.424474,65.1621094 114.419922,65.1621094 C116.002612,65.1621094 117.225419,65.6669871 118.088379,66.6767578 C118.951339,67.6865285 119.382812,69.1152251 119.382812,70.9628906 L119.382812,72.015625 L111.788086,72.015625 C111.866862,72.9752652 112.187334,73.7343722 112.749512,74.2929688 C113.311689,74.8515653 114.018876,75.1308594 114.871094,75.1308594 C116.067063,75.1308594 117.041012,74.6474658 117.792969,73.6806641 L119.200195,75.0234375 C118.734698,75.7181024 118.113448,76.2569968 117.336426,76.6401367 C116.559404,77.0232767 115.687505,77.2148438 114.720703,77.2148438 Z M114.40918,67.2568359 C113.69303,67.2568359 113.114748,67.5074845 112.674316,68.0087891 C112.233885,68.5100937 111.9528,69.2083289 111.831055,70.1035156 L116.804688,70.1035156 L116.804688,69.9101562 C116.747396,69.036454 116.51465,68.375816 116.106445,67.9282227 C115.69824,67.4806293 115.132491,67.2568359 114.40918,67.2568359 Z" id="path-5"></path>
        <filter x="-0.6%" y="-3.1%" width="101.3%" height="106.2%" filterUnits="objectBoundingBox" id="filter-6">
            <feOffset dx="-1" dy="1" in="SourceAlpha" result="shadowOffsetInner1"></feOffset>
            <feComposite in="shadowOffsetInner1" in2="SourceAlpha" operator="arithmetic" k2="-1" k3="1" result="shadowInnerInner1"></feComposite>
            <feColorMatrix values="0 0 0 0 0.176699523   0 0 0 0 0.05497985   0 0 0 0 0.312739158  0 0 0 0.82 0" type="matrix" in="shadowInnerInner1"></feColorMatrix>
        </filter>
    </defs>
    <g stroke="none" stroke-width="1" fill="none" fill-rule="evenodd" transform="translate(-201.000000, -4024.000000)">
        <g id="Group-40" transform="translate(201.000000, 4022.000000)">
            <g id="Group-36">
                <polygon id="Rectangle-55-Copy-2" fill="url(#linearGradient-1)" transform="translate(57.033554, 17.114951) rotate(-15.000000) translate(-57.033554, -17.114951) " points="-1.5579582 15.4524507 100.081448 15.4524507 115.625066 17.5384666 14.1288764 17.5859841"></polygon>
                <polygon id="Rectangle-55-Copy" fill="url(#linearGradient-2)" transform="translate(21.031976, 78.647559) rotate(-15.000000) translate(-21.031976, -78.647559) " points="13.1770592 26.8577305 28.886892 28.8157505 28.886892 130.437388 13.1770592 128.479368"></polygon>
                <rect id="Rectangle-55" fill="url(#linearGradient-3)" transform="translate(77.869078, 64.555290) rotate(-15.000000) translate(-77.869078, -64.555290) " x="27.0493747" y="13.7444709" width="101.639407" height="101.621638"></rect>
            </g>
            <g id="Runtime" transform="translate(79.486328, 69.088379) rotate(-15.000000) translate(-79.486328, -69.088379) ">
                <use fill="url(#linearGradient-4)" fill-rule="evenodd" xlink:href="#path-5"></use>
                <use fill="black" fill-opacity="1" filter="url(#filter-6)" xlink:href="#path-5"></use>
            </g>
        </g>
    </g>
</svg>