<?xml version="1.0" encoding="UTF-8"?>
<svg width="295px" height="92px" viewBox="0 0 295 92" version="1.1" xmlns="http://www.w3.org/2000/svg" xmlns:xlink="http://www.w3.org/1999/xlink">
    <!-- Generator: Sketch 48.1 (47250) - http://www.bohemiancoding.com/sketch -->
    <title>方块波浪</title>
    <desc>Created with Sketch.</desc>
    <defs></defs>
    <g id="openpitrix官网页面-copy" stroke="none" stroke-width="1" fill="none" fill-rule="evenodd" transform="translate(-732.000000, -4087.000000)">
        <path d="M732,4116.31493 C732.824948,4116.29826 733.535545,4116.28087 734.13179,4116.26278 C756.912601,4115.57141 761.244377,4105.27168 776.438097,4106.84141 C803.790862,4109.66734 834.421156,4126.51876 861.8459,4126.51876 C896.075231,4126.51876 935.080782,4109.92633 969.388689,4106.84141 C986.15604,4105.33371 989.942252,4113.40256 1026.82982,4116.2625 L1026.82982,4178.26278 L732,4178.26278 L732,4116.31493 Z M962.124216,4087.15246 C970.033173,4085.9571 972.175891,4092.09625 968.59854,4094.91716 C965.02119,4097.73807 958.888144,4095.41569 951.850288,4099.78573 C948.67349,4101.75831 947.419995,4104.00359 947.036927,4104.07113 C945.272327,4104.38228 949.547375,4089.3701 962.124216,4087.15246 Z" id="方块波浪" fill="#6626AF"></path>
    </g>
</svg>