<?xml version="1.0" encoding="UTF-8"?>
<svg width="388px" height="405px" viewBox="0 0 388 405" version="1.1" xmlns="http://www.w3.org/2000/svg" xmlns:xlink="http://www.w3.org/1999/xlink">
    <!-- Generator: Sketch 48.1 (47250) - http://www.bohemiancoding.com/sketch -->
    <title>左上角菱形</title>
    <desc>Created with Sketch.</desc>
    <defs></defs>
    <g stroke="none" stroke-width="1" fill="none" fill-rule="evenodd" transform="translate(-6.000000, -4344.000000)">
        <g id="左上角菱形" transform="translate(6.000000, 4344.000000)" fill="#FFFFFF">
            <path d="M87.7814938,0 L270,1.77635684e-15 C272.209139,1.37054459e-15 274,1.790861 274,4 C274,4.64284617 273.845063,5.27622293 273.548312,5.84647767 L189.766819,166.846478 C189.078169,168.169831 187.710318,169 186.218506,169 L4,169 C1.790861,169 7.37069072e-10,167.209139 7.37061079e-10,165 C7.37058858e-10,164.357154 0.154937421,163.723777 0.451687697,163.153522 L84.2331815,2.15352233 C84.9218307,0.830168935 86.2896821,9.15582555e-15 87.7814938,8.8817842e-15 Z" id="Rectangle-26" opacity="0.200000003"></path>
            <path d="M166.041685,123 L301,123 C303.209139,123 305,124.790861 305,127 C305,127.643885 304.844561,128.278255 304.546893,128.849203 L242.505207,247.849203 C241.816052,249.171048 240.449022,250 238.958315,250 L104,250 C101.790861,250 100,248.209139 100,246 C100,245.356115 100.155439,244.721745 100.453107,244.150797 L162.494793,125.150797 C163.183948,123.828952 164.550978,123 166.041685,123 Z" id="Rectangle-26-Copy-2" opacity="0.100000001"></path>
            <path d="M307.277084,200 L384,200 C386.209139,200 388,201.790861 388,204 C388,204.641141 387.845883,205.272888 387.550638,205.842002 L352.273553,273.842002 C351.585738,275.167832 350.21654,276 348.722916,276 L272,276 C269.790861,276 268,274.209139 268,272 C268,271.358859 268.154117,270.727112 268.449362,270.157998 L303.726447,202.157998 C304.414262,200.832168 305.78346,200 307.277084,200 Z" id="Rectangle-26-Copy-3" opacity="0.100000001"></path>
            <path d="M187.277084,212 L264,212 C266.209139,212 268,213.790861 268,216 C268,216.641141 267.845883,217.272888 267.550638,217.842002 L232.273553,285.842002 C231.585738,287.167832 230.21654,288 228.722916,288 L152,288 C149.790861,288 148,286.209139 148,284 C148,283.358859 148.154117,282.727112 148.449362,282.157998 L183.726447,214.157998 C184.414262,212.832168 185.78346,212 187.277084,212 Z" id="Rectangle-26-Copy-4" opacity="0.100000001"></path>
            <path d="M152.960996,305 L179,305 C181.209139,305 183,306.790861 183,309 C183,309.642486 182.845236,310.275518 182.548804,310.845532 L170.587808,333.845532 C169.899335,335.169409 168.531199,336 167.039004,336 L141,336 C138.790861,336 137,334.209139 137,332 C137,331.357514 137.154764,330.724482 137.451196,330.154468 L149.412192,307.154468 C150.100665,305.830591 151.468801,305 152.960996,305 Z" id="Rectangle-26-Copy-5" opacity="0.200000003"></path>
            <path d="M186.960996,320 L213,320 C215.209139,320 217,321.790861 217,324 C217,324.642486 216.845236,325.275518 216.548804,325.845532 L204.587808,348.845532 C203.899335,350.169409 202.531199,351 201.039004,351 L175,351 C172.790861,351 171,349.209139 171,347 C171,346.357514 171.154764,345.724482 171.451196,345.154468 L183.412192,322.154468 C184.100665,320.830591 185.468801,320 186.960996,320 Z" id="Rectangle-26-Copy-6" opacity="0.300000012"></path>
            <path d="M140.960996,351 L167,351 C169.209139,351 171,352.790861 171,355 C171,355.642486 170.845236,356.275518 170.548804,356.845532 L158.587808,379.845532 C157.899335,381.169409 156.531199,382 155.039004,382 L129,382 C126.790861,382 125,380.209139 125,378 C125,377.357514 125.154764,376.724482 125.451196,376.154468 L137.412192,353.154468 C138.100665,351.830591 139.468801,351 140.960996,351 Z" id="Rectangle-26-Copy-7" opacity="0.100000001"></path>
            <path d="M200.960996,374 L227,374 C229.209139,374 231,375.790861 231,378 C231,378.642486 230.845236,379.275518 230.548804,379.845532 L218.587808,402.845532 C217.899335,404.169409 216.531199,405 215.039004,405 L189,405 C186.790861,405 185,403.209139 185,401 C185,400.357514 185.154764,399.724482 185.451196,399.154468 L197.412192,376.154468 C198.100665,374.830591 199.468801,374 200.960996,374 Z" id="Rectangle-26-Copy-8" opacity="0.100000001"></path>
            <path d="M237.960996,297 L264,297 C266.209139,297 268,298.790861 268,301 C268,301.642486 267.845236,302.275518 267.548804,302.845532 L255.587808,325.845532 C254.899335,327.169409 253.531199,328 252.039004,328 L226,328 C223.790861,328 222,326.209139 222,324 C222,323.357514 222.154764,322.724482 222.451196,322.154468 L234.412192,299.154468 C235.100665,297.830591 236.468801,297 237.960996,297 Z" id="Rectangle-26-Copy-9" opacity="0.049999997"></path>
        </g>
    </g>
</svg>