<?xml version="1.0" encoding="UTF-8"?>
<svg width="255px" height="177px" viewBox="0 0 255 177" version="1.1" xmlns="http://www.w3.org/2000/svg" xmlns:xlink="http://www.w3.org/1999/xlink">
    <!-- Generator: Sketch 48.1 (47250) - http://www.bohemiancoding.com/sketch -->
    <title>右下角菱形</title>
    <desc>Created with Sketch.</desc>
    <defs></defs>
    <g id="openpitrix官网页面-copy" stroke="none" stroke-width="1" fill="none" fill-rule="evenodd" transform="translate(-1181.000000, -4783.000000)" opacity="0.100000001">
        <g id="右下角菱形" transform="translate(1181.000000, 4783.000000)" fill="#FFFFFF">
            <path d="M116.041685,50 L251,50 C253.209139,50 255,51.790861 255,54 C255,54.6438855 254.844561,55.2782551 254.546893,55.8492033 L192.505207,174.849203 C191.816052,176.171048 190.449022,177 188.958315,177 L54,177 C51.790861,177 50,175.209139 50,173 C50,172.356115 50.1554386,171.721745 50.4531074,171.150797 L112.494793,52.1507967 C113.183948,50.8289522 114.550978,50 116.041685,50 Z" id="Rectangle-26-Copy-2"></path>
            <path d="M66.0416853,0 L201,-1.19904087e-14 C203.209139,-1.23962209e-14 205,1.790861 205,4 C205,4.64388549 204.844561,5.27825515 204.546893,5.84920331 L142.505207,124.849203 C141.816052,126.171048 140.449022,127 138.958315,127 L4,127 C1.790861,127 8.81067663e-10,125.209139 8.81061446e-10,123 C8.8105967e-10,122.356115 0.155438609,121.721745 0.453107402,121.150797 L62.4947927,2.15079669 C63.1839478,0.828952161 64.5509781,1.35965148e-14 66.0416853,1.33226763e-14 Z" id="Rectangle-26-Copy-2"></path>
        </g>
    </g>
</svg>