<?xml version="1.0" encoding="UTF-8"?>
<svg width="69px" height="69px" viewBox="0 0 69 69" version="1.1" xmlns="http://www.w3.org/2000/svg" xmlns:xlink="http://www.w3.org/1999/xlink">
    <!-- Generator: Sketch 48.1 (47250) - http://www.bohemiancoding.com/sketch -->
    <title>c++</title>
    <desc>Created with Sketch.</desc>
    <defs>
        <linearGradient x1="50%" y1="0%" x2="50%" y2="100%" id="linearGradient-1">
            <stop stop-color="#1D324C" offset="0%"></stop>
            <stop stop-color="#1A2531" offset="100%"></stop>
        </linearGradient>
        <rect id="path-2" x="0" y="0" width="53" height="53" rx="9.0112"></rect>
        <filter x="-24.5%" y="-20.8%" width="149.1%" height="149.1%" filterUnits="objectBoundingBox" id="filter-3">
            <feOffset dx="0" dy="2" in="SourceAlpha" result="shadowOffsetOuter1"></feOffset>
            <feGaussianBlur stdDeviation="4" in="shadowOffsetOuter1" result="shadowBlurOuter1"></feGaussianBlur>
            <feColorMatrix values="0 0 0 0 0.0196078431   0 0 0 0 0.00392156863   0 0 0 0 0.0392156863  0 0 0 0.2 0" type="matrix" in="shadowBlurOuter1"></feColorMatrix>
        </filter>
    </defs>
    <g id="openpitrix官网页面" stroke="none" stroke-width="1" fill="none" fill-rule="evenodd" transform="translate(-281.000000, -4873.000000)">
        <g id="c++" transform="translate(289.000000, 4879.000000)">
            <g id="Group-21-Copy">
                <g id="Rectangle-14">
                    <use fill="black" fill-opacity="1" filter="url(#filter-3)" xlink:href="#path-2"></use>
                    <use fill="url(#linearGradient-1)" fill-rule="evenodd" xlink:href="#path-2"></use>
                </g>
            </g>
            <path d="M10.712766,33.2659574 L10.712766,24.2446809 L43.4148936,24.2446809 L43.4148936,33.2659574 L10.712766,33.2659574 Z M10.712766,34.9574468 L43.4148936,34.9574468 L43.4148936,41.7246638 C43.4148936,42.3467574 42.9105872,42.8510638 42.2884936,42.8510638 L11.839166,42.8510638 C11.2170724,42.8510638 10.712766,42.3467574 10.712766,41.7246638 L10.712766,34.9574468 Z M10.712766,22.5531915 L10.712766,11.2753362 C10.712766,10.6532426 11.2170724,10.1489362 11.839166,10.1489362 L19.1702128,10.1489362 L19.1702128,15.2246638 C19.1702128,15.8467574 19.6745192,16.3510638 20.2966128,16.3510638 L33.8310468,16.3510638 C34.4531404,16.3510638 34.9574468,15.8467574 34.9574468,15.2246638 L34.9574468,10.1489362 L35.7504742,10.1489362 L43.0631438,17.0762979 C43.287697,17.2890193 43.4148936,17.584722 43.4148936,17.894035 L43.4148936,22.5531915 L10.712766,22.5531915 Z M24.9885618,29.7398188 L24.0866543,29.7398188 C24.0866543,30.1175426 23.9870858,30.4066126 23.7879457,30.6070375 C23.5888056,30.8074624 23.2978085,30.9076733 22.9149456,30.9076733 C22.524374,30.9076733 22.2160327,30.7567145 21.9899123,30.4547924 C21.7637919,30.1528703 21.6507335,29.7693708 21.6507335,29.3042823 L21.6507335,28.2289312 C21.6507335,27.7689818 21.7618648,27.3880518 21.9841309,27.0861297 C22.2063969,26.7842076 22.5076721,26.6332488 22.8879654,26.6332488 C23.2811065,26.6332488 23.5791698,26.7328174 23.7821642,26.9319575 C23.9851587,27.1310976 24.0866543,27.4182405 24.0866543,27.7933947 L24.9924161,27.7933947 L25.0001247,27.7702689 C25.0104029,27.1844115 24.8260404,26.7231843 24.4470319,26.3865733 C24.0680233,26.0499623 23.5483397,25.8816593 22.8879654,25.8816593 C22.2430085,25.8816593 21.720113,26.1032797 21.3192632,26.546527 C20.9184135,26.9897743 20.7179916,27.5531396 20.7179916,28.2366398 L20.7179916,29.3042823 C20.7179916,29.9903521 20.920983,30.5537174 21.3269718,30.9943952 C21.7329607,31.4350729 22.26228,31.6554085 22.9149456,31.6554085 C23.557333,31.6554085 24.0673809,31.4813241 24.4451047,31.1331501 C24.8228285,30.7849762 25.0065486,30.3282456 24.9962704,29.7629446 L24.9885618,29.7398188 Z M27.9525224,28.4871696 L27.9525224,26.926176 L27.0429064,26.926176 L27.0429064,28.4871696 L25.5705618,28.4871696 L25.5705618,29.3428254 L27.0429064,29.3428254 L27.0429064,31.0117395 L27.9525224,31.0117395 L27.9525224,29.3428254 L29.4171584,29.3428254 L29.4171584,28.4871696 L27.9525224,28.4871696 Z M32.3502847,28.4871696 L32.3502847,26.926176 L31.4406686,26.926176 L31.4406686,28.4871696 L29.9683241,28.4871696 L29.9683241,29.3428254 L31.4406686,29.3428254 L31.4406686,31.0117395 L32.3502847,31.0117395 L32.3502847,29.3428254 L33.8149206,29.3428254 L33.8149206,28.4871696 L32.3502847,28.4871696 Z M20.2978723,10.1413391 L33.829794,10.1413391 L33.8297872,14.6602043 C33.8297868,14.9712507 33.5776337,15.2234035 33.2665872,15.2234035 L20.8610723,15.2234043 C20.5500256,15.2234043 20.2978723,14.971251 20.2978723,14.6602043 L20.2978723,10.1413391 Z" id="Combined-Shape" fill="#FFFFFF" opacity="0.900000036"></path>
        </g>
    </g>
</svg>