<?xml version="1.0" encoding="UTF-8"?>
<svg width="66px" height="50px" viewBox="0 0 66 50" version="1.1" xmlns="http://www.w3.org/2000/svg" xmlns:xlink="http://www.w3.org/1999/xlink">
    <!-- Generator: Sketch 48.1 (47250) - http://www.bohemiancoding.com/sketch -->
    <title>云</title>
    <desc>Created with Sketch.</desc>
    <defs></defs>
    <g id="openpitrix官网页面-copy-11" stroke="none" stroke-width="1" fill="none" fill-rule="evenodd" transform="translate(-1161.000000, -2361.000000)">
        <g id="云" transform="translate(1160.000000, 2352.000000)">
            <rect id="Rectangle-76" x="0" y="0" width="68" height="68"></rect>
            <path d="M26.0769231,49 C17.7501684,49 11,42.2842712 11,34 C11,25.7157288 17.7501684,19 26.0769231,19 C26.7467069,19 27.4062899,19.0434521 28.0529795,19.1276775 C30.5371702,13.1813156 36.4316278,9 43.3076923,9 C52.4274713,9 59.8205128,16.355322 59.8205128,25.4285714 C59.8205128,25.940137 59.7970111,26.4462414 59.7510232,26.9458742 C63.997604,28.6238958 67,32.7488275 67,37.5714286 C67,43.8832543 61.8570146,49 55.5128205,49 L26.0769231,49 Z" id="Combined-Shape" fill="#EDAD15"></path>
            <path d="M11.5,59 C5.70101013,59 1,54.2989899 1,48.5 C1,42.7010101 5.70101013,38 11.5,38 C11.9664566,38 12.425809,38.0304165 12.8761822,38.0893743 C14.6062435,33.9269209 18.7113122,31 23.5,31 C29.8512746,31 35,36.1487254 35,42.5 C35,42.8580959 34.9836327,43.2123689 34.9516054,43.562112 C37.9090456,44.7367271 40,47.6241792 40,51 C40,55.418278 36.418278,59 32,59 L11.5,59 Z" id="Combined-Shape" fill="#F6CC67"></path>
        </g>
    </g>
</svg>