<?xml version="1.0" encoding="UTF-8"?>
<svg width="66px" height="58px" viewBox="0 0 66 58" version="1.1" xmlns="http://www.w3.org/2000/svg" xmlns:xlink="http://www.w3.org/1999/xlink">
    <!-- Generator: Sketch 48.1 (47250) - http://www.bohemiancoding.com/sketch -->
    <title>菱形</title>
    <desc>Created with Sketch.</desc>
    <defs></defs>
    <g id="openpitrix官网页面-copy-11" stroke="none" stroke-width="1" fill="none" fill-rule="evenodd" transform="translate(-65.000000, -1635.000000)">
        <g id="菱形" transform="translate(64.000000, 1631.000000)">
            <rect id="Rectangle-76" x="0" y="0" width="68" height="68"></rect>
            <path d="M22.5769314,4 L61,4 C63.209139,4 65,5.790861 65,8 C65,8.65582648 64.8387451,9.3015929 64.530436,9.88043125 L46.9535046,42.8804313 C46.2586714,44.1849533 44.901098,45 43.4230686,45 L5,45 C2.790861,45 1,43.209139 1,41 C1,40.3441735 1.16125485,39.6984071 1.46956401,39.1195687 L19.0464954,6.11956875 C19.7413286,4.8150467 21.098902,4 22.5769314,4 Z" id="Rectangle-26" fill="#EDAD15"></path>
            <path d="M33.5339154,28 L63,28 C65.209139,28 67,29.790861 67,32 C67,32.6430093 66.844984,33.2765419 66.5480896,33.8469056 L53.0141742,59.8469056 C52.3254454,61.1700221 50.9577228,62 49.4660846,62 L20,62 C17.790861,62 16,60.209139 16,58 C16,57.3569907 16.155016,56.7234581 16.4519104,56.1530944 L29.9858258,30.1530944 C30.6745546,28.8299779 32.0422772,28 33.5339154,28 Z" id="Rectangle-26-Copy" fill="#F6CC67"></path>
        </g>
    </g>
</svg>