<?xml version="1.0" encoding="UTF-8"?>
<svg width="69px" height="69px" viewBox="0 0 69 69" version="1.1" xmlns="http://www.w3.org/2000/svg" xmlns:xlink="http://www.w3.org/1999/xlink">
    <!-- Generator: Sketch 48.1 (47250) - http://www.bohemiancoding.com/sketch -->
    <title>java</title>
    <desc>Created with Sketch.</desc>
    <defs>
        <linearGradient x1="50%" y1="0%" x2="50%" y2="100%" id="linearGradient-1">
            <stop stop-color="#1D324C" offset="0%"></stop>
            <stop stop-color="#1A2531" offset="100%"></stop>
        </linearGradient>
        <rect id="path-2" x="0" y="0" width="53" height="53" rx="9.0112"></rect>
        <filter x="-24.5%" y="-20.8%" width="149.1%" height="149.1%" filterUnits="objectBoundingBox" id="filter-3">
            <feOffset dx="0" dy="2" in="SourceAlpha" result="shadowOffsetOuter1"></feOffset>
            <feGaussianBlur stdDeviation="4" in="shadowOffsetOuter1" result="shadowBlurOuter1"></feGaussianBlur>
            <feColorMatrix values="0 0 0 0 0.0196078431   0 0 0 0 0.00392156863   0 0 0 0 0.0392156863  0 0 0 0.2 0" type="matrix" in="shadowBlurOuter1"></feColorMatrix>
        </filter>
    </defs>
    <g stroke="none" stroke-width="1" fill="none" fill-rule="evenodd" transform="translate(-174.000000, -4680.000000)">
        <g id="java" transform="translate(182.000000, 4686.000000)">
            <g id="Rectangle-14">
                <use fill="black" fill-opacity="1" filter="url(#filter-3)" xlink:href="#path-2"></use>
                <use fill="url(#linearGradient-1)" fill-rule="evenodd" xlink:href="#path-2"></use>
            </g>
            <path d="M39.4680851,26.5 L39.4680851,38.3404255 C39.4680851,41.4543715 36.9437332,43.9787234 33.8297872,43.9787234 L12.9680851,43.9787234 L12.9680851,26.5 L39.4680851,26.5 Z M19.1916868,31.6008976 L19.1916868,35.5284346 C19.1916868,35.8367805 19.113959,36.0834536 18.9585013,36.2684612 C18.8030435,36.4534688 18.603264,36.5459712 18.3591568,36.5459712 C18.0867846,36.5459712 17.8741575,36.4695282 17.7212693,36.31664 C17.5683811,36.1637518 17.4919382,35.9279992 17.4919382,35.609375 L16.5861764,35.609375 L16.5784678,35.6325008 C16.5656201,36.1746758 16.7210755,36.5870823 17.0448388,36.8697328 C17.368602,37.1523833 17.8067037,37.2937064 18.3591568,37.2937064 C18.8807754,37.2937064 19.3053871,37.1343967 19.6330047,36.8157725 C19.9606223,36.4971484 20.1244286,36.06804 20.1244286,35.5284346 L20.1244286,31.6008976 L19.1916868,31.6008976 Z M24.132906,35.9023022 L24.5607339,37.212766 L25.5281645,37.212766 L23.5933033,31.6008976 L22.7029588,31.6008976 L20.7449717,37.212766 L21.7124023,37.212766 L22.1440845,35.9023022 L24.132906,35.9023022 Z M27.7289727,35.6903154 L26.3915288,31.6008976 L25.3932638,31.6008976 L27.3936482,37.212766 L28.2839927,37.212766 L30.2882314,31.6008976 L29.2899663,31.6008976 L27.9486681,35.698024 L27.8523105,36.0988718 L27.8291847,36.0988718 L27.7289727,35.6903154 Z M33.5682451,35.9023022 L33.996073,37.212766 L34.9635036,37.212766 L33.0286424,31.6008976 L32.1382979,31.6008976 L30.1803108,37.212766 L31.1477414,37.212766 L31.5794236,35.9023022 L33.5682451,35.9023022 Z" id="Combined-Shape" fill="#FFFFFF"></path>
            <polygon id="Path" fill="#FFFFFF" points="22.402323 35.1198782 23.8785219 35.1198782 23.1577668 32.9075071 23.134641 32.9075071"></polygon>
            <polygon id="Path" fill="#FFFFFF" points="31.8376621 35.1198782 33.313861 35.1198782 32.5931059 32.9075071 32.5699801 32.9075071"></polygon>
            <path d="M12.9680851,24.8085106 L12.9680851,14.6595745 C12.9680851,11.5456285 15.492437,9.0212766 18.606383,9.0212766 L39.4680851,9.0212766 L39.4680851,24.8085106 L12.9680851,24.8085106 Z M28.1914894,13.5319149 L28.1914894,15.2234043 L34.9574468,15.2234043 L34.9574468,13.5319149 L28.1914894,13.5319149 Z M17.4787234,17.4787234 L17.4787234,19.1702128 L34.9574468,19.1702128 L34.9574468,17.4787234 L17.4787234,17.4787234 Z" id="Combined-Shape" fill="#FFFFFF"></path>
        </g>
    </g>
</svg>