<?xml version="1.0" encoding="UTF-8"?>
<svg width="69px" height="69px" viewBox="0 0 69 69" version="1.1" xmlns="http://www.w3.org/2000/svg" xmlns:xlink="http://www.w3.org/1999/xlink">
    <!-- Generator: Sketch 48.1 (47250) - http://www.bohemiancoding.com/sketch -->
    <title>linux</title>
    <desc>Created with Sketch.</desc>
    <defs>
        <linearGradient x1="50%" y1="0%" x2="50%" y2="100%" id="linearGradient-1">
            <stop stop-color="#1D324C" offset="0%"></stop>
            <stop stop-color="#1A2531" offset="100%"></stop>
        </linearGradient>
        <rect id="path-2" x="0" y="0" width="53" height="53" rx="9.0112"></rect>
        <filter x="-24.5%" y="-20.8%" width="149.1%" height="149.1%" filterUnits="objectBoundingBox" id="filter-3">
            <feOffset dx="0" dy="2" in="SourceAlpha" result="shadowOffsetOuter1"></feOffset>
            <feGaussianBlur stdDeviation="4" in="shadowOffsetOuter1" result="shadowBlurOuter1"></feGaussianBlur>
            <feColorMatrix values="0 0 0 0 0.0196078431   0 0 0 0 0.00392156863   0 0 0 0 0.0392156863  0 0 0 0.2 0" type="matrix" in="shadowBlurOuter1"></feColorMatrix>
        </filter>
        <linearGradient x1="50%" y1="0.629783163%" x2="50%" y2="53.274193%" id="linearGradient-4">
            <stop stop-color="#FFFFFF" stop-opacity="0.360507246" offset="0%"></stop>
            <stop stop-color="#FFFFFF" offset="100%"></stop>
        </linearGradient>
    </defs>
    <g id="openpitrix官网页面" stroke="none" stroke-width="1" fill="none" fill-rule="evenodd" transform="translate(-388.000000, -4747.000000)">
        <g id="linux" transform="translate(396.000000, 4753.000000)">
            <g id="Rectangle-14">
                <use fill="black" fill-opacity="1" filter="url(#filter-3)" xlink:href="#path-2"></use>
                <use fill="url(#linearGradient-1)" fill-rule="evenodd" xlink:href="#path-2"></use>
            </g>
            <path d="M34.7822787,45.2628802 C32.4101876,45.73813 29.3180588,45.2804316 25.9361702,45.2804316 C22.4862902,45.2804316 19.3379381,45.8262475 16.9478687,45.345373 C16.7546073,45.5424929 16.5317605,45.7161258 16.2771551,45.8631223 C14.0905079,47.1255837 11.0132733,45.6533306 8.81042123,43.012443 C7.85258101,41.864137 4.57758118,39.886626 4.5653155,37.9818764 C4.56066602,37.2598546 6.72928577,37.0817632 6.81718922,36.3696036 C7.02381409,34.6956093 7.25584518,32.92669 8.42018811,32.2544563 C9.57228388,31.5892935 10.8234371,32.5281399 12.3599616,33.1694825 C12.5197805,33.2361906 12.7062444,33.183821 12.906062,33.0730304 C13.504097,30.6657361 14.6109892,28.2705184 16.0874013,26.2156816 C16.1524001,26.1252178 16.5838287,25.2540416 16.6175639,25.1319219 C18.1414421,19.6155612 17.7342653,17.2691616 17.7342653,14.9414894 C17.7342653,10.4262678 21.1390337,6.76595745 25.6542553,6.76595745 C30.1694769,6.76595745 33.3358395,10.4262678 33.3358395,14.9414894 C33.3358395,16.1636694 32.6307408,22.0860623 35.4703106,25.7903354 C35.5851939,25.9412004 35.8894765,26.3771541 36.3831584,27.0981963 C37.568721,28.9531044 38.4630185,31.0284252 38.9757866,33.111479 C39.1477117,33.1949895 39.3081273,33.2279083 39.4481036,33.1694825 C40.984628,32.5281399 42.2357813,31.5892935 43.387877,32.2544563 C44.55222,32.92669 44.784251,34.6956093 44.9908759,36.3696036 C45.0787794,37.0817632 47.2473991,37.2598546 47.2427496,37.9818764 C47.230484,39.886626 43.9554841,41.864137 42.9976439,43.012443 C40.7947918,45.6533306 37.7175573,47.1255837 35.53091,45.8631223 C35.2413561,45.6959483 34.9928778,45.4943234 34.7822787,45.2628802 Z M18.606383,31.5744681 L18.6117046,31.856383 C18.7598509,27.9389016 21.9824396,24.8085106 25.9361702,24.8085106 C29.8899009,24.8085106 33.1124895,27.9389016 33.2606358,31.856383 C33.2641729,31.7628494 33.2659574,31.6688671 33.2659574,31.5744681 C33.2659574,27.5263384 29.9842999,24.2446809 25.9361702,24.2446809 C21.8880405,24.2446809 18.606383,27.5263384 18.606383,31.5744681 Z M25.678449,19.2516961 C26.3333583,19.2516961 27.1171154,18.7996762 27.8779675,18.5149133 C28.9259555,18.1226844 29.8743415,17.7729936 29.8743415,16.8709298 C29.8743415,15.9454071 28.7374307,15.6614518 27.654036,15.1474612 C26.9148756,14.7967844 26.3098992,14.0517809 25.678449,14.0517809 C25.0620055,14.0517809 24.346079,14.8117927 23.6289702,15.1474612 C22.5348523,15.6596025 21.5227287,15.9304004 21.5227287,16.8709298 C21.5227287,17.7851263 22.5740333,18.1246018 23.6289702,18.5149133 C24.370702,18.7893433 25.0356726,19.2516961 25.678449,19.2516961 Z M22.6681675,17.1329438 C24.0396431,17.4153205 25.0682497,17.5565089 25.7539875,17.5565089 C26.4397253,17.5565089 27.5506598,17.4153205 29.0867913,17.1329438 L27.4861187,17.6887476 C26.3712489,18.0758655 25.1562408,18.0618291 24.0506118,17.6490589 L22.6681675,17.1329438 Z M16.1858793,38.7203499 L16.1858793,33.8562168 L15.2492832,33.8562168 L15.2492832,39.4680851 L18.8145155,39.4680851 L18.8145155,38.7203499 L16.1858793,38.7203499 Z M20.6221846,39.4680851 L20.6221846,33.8562168 L19.6855884,33.8562168 L19.6855884,39.4680851 L20.6221846,39.4680851 Z M26.2610331,39.4680851 L26.2610331,33.8562168 L25.3244369,33.8562168 L25.3244369,37.8916743 L25.3013111,37.8993829 L22.8152842,33.8562168 L21.8786881,33.8562168 L21.8786881,39.4680851 L22.8152842,39.4680851 L22.8152842,35.4326276 L22.8384101,35.424919 L25.3244369,39.4680851 L26.2610331,39.4680851 Z M31.7264378,33.8562168 L30.7898417,33.8562168 L30.7898417,37.5524954 C30.7898417,37.9507756 30.6742137,38.2584746 30.4429542,38.4756015 C30.2116947,38.6927285 29.9059229,38.8012903 29.5256296,38.8012903 C29.158184,38.8012903 28.8626902,38.6927285 28.6391394,38.4756015 C28.4155886,38.2584746 28.3038148,37.9507756 28.3038148,37.5524954 L28.3038148,33.8562168 L27.3672187,33.8562168 L27.3672187,37.5524954 C27.3672187,38.176896 27.5676405,38.6657455 27.9684903,39.0190586 C28.36934,39.3723716 28.8883813,39.5490255 29.5256296,39.5490255 C30.1731561,39.5490255 30.701833,39.3723716 31.1116762,39.0190586 C31.5215193,38.6657455 31.7264378,38.176896 31.7264378,37.5524954 L31.7264378,33.8562168 Z M34.7366502,35.9298329 L33.5649414,33.8562168 L32.4626101,33.8562168 L34.1893388,36.6390251 L32.4240671,39.4680851 L33.534107,39.4680851 L34.7520674,37.3597802 L35.9700278,39.4680851 L37.095485,39.4680851 L35.303233,36.6390251 L37.0299618,33.8562168 L35.9199219,33.8562168 L34.7366502,35.9298329 Z" id="Combined-Shape" fill="url(#linearGradient-4)"></path>
        </g>
    </g>
</svg>