<?xml version="1.0" encoding="UTF-8"?>
<svg width="170px" height="23px" viewBox="0 0 170 23" version="1.1" xmlns="http://www.w3.org/2000/svg" xmlns:xlink="http://www.w3.org/1999/xlink">
    <!-- Generator: Sketch 48.1 (47250) - http://www.bohemiancoding.com/sketch -->
    <title>logo-new-w</title>
    <desc>Created with Sketch.</desc>
    <defs></defs>
    <g id="openpitrix官网页面" stroke="none" stroke-width="1" fill="none" fill-rule="evenodd" transform="translate(-140.000000, -5841.000000)">
        <g id="logo-new-w" transform="translate(140.000000, 5841.000000)" fill="#FFFFFF">
            <path d="M160.461538,8.43356773 L165.988684,0.0150123578 L170,0.0150123578 L162.467196,11.4884431 L170,22.9618739 L165.988684,22.9618739 L160.461538,14.5433185 L154.934393,22.9618739 L150.923077,22.9618739 L158.455881,11.4884431 L150.923077,0.0150123578 L154.934393,0.0150123578 L160.461538,8.43356773 Z M134.775556,13.7828498 C134.755009,13.783036 134.734439,13.7831293 134.713848,13.7831293 L129.938462,13.7831293 L129.938462,22.9618739 L126.123077,22.9618739 L126.123077,0.0150123578 L129.938462,0.0150123578 L134.713848,0.0150123578 C138.398011,0.0150123578 141.384615,3.00161687 141.384615,6.68578024 L141.384615,7.1123614 C141.384615,9.52815258 140.100457,11.6440124 138.17752,12.8145601 L143.6204,23 L139.701003,23 L134.775555,13.7828479 Z M118.110769,3.81993077 L118.110769,22.9618739 L114.295385,22.9618739 L114.295385,3.81993077 L107.980452,3.81993077 L107.980452,0.00454615346 L124.425702,0.00454615346 L124.425702,3.81993077 L118.110769,3.81993077 Z M129.938462,3.83966667 L129.938462,10.3409227 L134.318603,10.3409227 C136.113875,10.3409227 137.569231,8.88556693 137.569231,7.09029466 C137.569231,5.2950224 136.113875,3.83966667 134.318603,3.83966667 L129.938462,3.83966667 Z M144.436923,0.0150123578 L148.252308,0.0150123578 L148.252308,22.9618739 L144.436923,22.9618739 L144.436923,0.0150123578 Z" id="Combined-Shape"></path>
            <path d="M10.5,20.7 C14.9523068,20.7 18.6666667,16.6318916 18.6666667,11.5 C18.6666667,6.36810839 14.9523068,2.3 10.5,2.3 C6.04769316,2.3 2.33333333,6.36810839 2.33333333,11.5 C2.33333333,16.6318916 6.04769316,20.7 10.5,20.7 Z M10.5,23 C4.70101013,23 0,17.8512746 0,11.5 C0,5.14872538 4.70101013,0 10.5,0 C16.2989899,0 21,5.14872538 21,11.5 C21,17.8512746 16.2989899,23 10.5,23 Z" id="Oval-2" fill-rule="nonzero"></path>
            <path d="M27.3076923,0 L33.8461538,0 C37.2448292,0 40,2.74598687 40,6.13333333 L40,7.66666667 C40,11.0540131 37.2448292,13.8 33.8461538,13.8 L27.3076923,13.8 L27.3076923,23 L25,23 L25,0 L27.3076923,0 Z M27.3076923,2.3 L27.3076923,11.5 L33.8461538,11.5 C35.970326,11.5 37.6923077,9.78375821 37.6923077,7.66666667 L37.6923077,6.13333333 C37.6923077,4.01624179 35.970326,2.3 33.8461538,2.3 L27.3076923,2.3 Z" id="Combined-Shape"></path>
            <path d="M87.75,0 L93,0 C96.3137085,0 99,2.74598687 99,6.13333333 L99,8.05 C99,11.4373465 96.3137085,14.1833333 93,14.1833333 L87.75,14.1833333 L87.75,23 L84,23 L84,0 L87.75,0 Z M87.75,3.83333333 L87.75,10.35 L93,10.35 C94.2426407,10.35 95.25,9.32025492 95.25,8.05 L95.25,6.13333333 C95.25,4.86307841 94.2426407,3.83333333 93,3.83333333 L87.75,3.83333333 Z" id="Combined-Shape"></path>
            <polygon id="Combined-Shape" points="57 2.3 45.2702703 2.3 45.2702703 9.96666667 57 9.96666667 57 12.2666667 45.2702703 12.2666667 45.2702703 20.7 57 20.7 57 23 43 23 43 0 45.2702703 0 57 0"></polygon>
            <polygon id="Combined-Shape" points="77.6521739 7.56603065 77.6521739 0 80 0 80 23 77.6521739 23 77.6521739 10.147381 64.3478261 3.50656597 64.3478261 23 62 23 62 0 64.3478261 0 64.3478261 0.925215624"></polygon>
            <polygon id="Rectangle-4-Copy-8" points="102 0 106 0 106 15 102 13.125"></polygon>
            <polygon id="Rectangle-4-Copy-15" opacity="0.600000024" transform="translate(104.000000, 20.500000) rotate(-180.000000) translate(-104.000000, -20.500000) " points="102 18 106 18 106 23 102 21.3035714"></polygon>
        </g>
    </g>
</svg>