<?xml version="1.0" encoding="UTF-8"?>
<svg width="69px" height="69px" viewBox="0 0 69 69" version="1.1" xmlns="http://www.w3.org/2000/svg" xmlns:xlink="http://www.w3.org/1999/xlink">
    <!-- Generator: Sketch 48.1 (47250) - http://www.bohemiancoding.com/sketch -->
    <title>php</title>
    <desc>Created with Sketch.</desc>
    <defs>
        <linearGradient x1="50%" y1="0%" x2="50%" y2="100%" id="linearGradient-1">
            <stop stop-color="#1D324C" offset="0%"></stop>
            <stop stop-color="#1A2531" offset="100%"></stop>
        </linearGradient>
        <rect id="path-2" x="0" y="0" width="53" height="53" rx="26.5"></rect>
        <filter x="-24.5%" y="-20.8%" width="149.1%" height="149.1%" filterUnits="objectBoundingBox" id="filter-3">
            <feOffset dx="0" dy="2" in="SourceAlpha" result="shadowOffsetOuter1"></feOffset>
            <feGaussianBlur stdDeviation="4" in="shadowOffsetOuter1" result="shadowBlurOuter1"></feGaussianBlur>
            <feColorMatrix values="0 0 0 0 0.0196078431   0 0 0 0 0.00392156863   0 0 0 0 0.0392156863  0 0 0 0.2 0" type="matrix" in="shadowBlurOuter1"></feColorMatrix>
        </filter>
        <rect id="path-4" x="0" y="0" width="46.7978723" height="46.7978723" rx="23.3989362"></rect>
    </defs>
    <g id="openpitrix官网页面" stroke="none" stroke-width="1" fill="none" fill-rule="evenodd" transform="translate(-174.000000, -4916.000000)">
        <g id="php" transform="translate(182.000000, 4922.000000)">
            <g id="Mask">
                <use fill="black" fill-opacity="1" filter="url(#filter-3)" xlink:href="#path-2"></use>
                <use fill="url(#linearGradient-1)" fill-rule="evenodd" xlink:href="#path-2"></use>
            </g>
            <g id="Rectangle-32" transform="translate(3.382979, 3.382979)">
                <mask id="mask-5" fill="white">
                    <use xlink:href="#path-4"></use>
                </mask>
                <use id="Mask" fill="url(#linearGradient-1)" xlink:href="#path-4"></use>
                <path d="M25.9361702,15.787234 L7.89361702,15.787234 L7.89361702,29.8829787 L25.9361702,29.8829787 L25.9361702,41.1595745 L-6.20212766,41.1595745 L-6.20212766,5.07446809 L20.3041702,5.07446809 C23.4146379,5.07446809 25.9361702,7.59600037 25.9361702,10.7064681 L25.9361702,15.787234 Z" id="Combined-Shape" fill="#FFFFFF" mask="url(#mask-5)"></path>
                <path d="M10.1489362,18.0425532 L37.212766,18.0425532 L37.212766,27.6276596 L10.1489362,27.6276596 L10.1489362,18.0425532 Z M17.3135389,23.8085938 L18.527645,23.8085938 C19.1469065,23.8085938 19.6319017,23.6499264 19.9826452,23.3325871 C20.3333888,23.0152477 20.5087579,22.5932055 20.5087579,22.0664478 C20.5087579,21.5448292 20.3333888,21.1240718 19.9826452,20.8041629 C19.6319017,20.4842539 19.1469065,20.3243019 18.527645,20.3243019 L16.3769427,20.3243019 L16.3769427,25.9361702 L17.3135389,25.9361702 L17.3135389,23.8085938 Z M25.7853017,25.9361702 L25.7853017,20.3243019 L24.8487055,20.3243019 L24.8487055,22.7910572 L22.3395529,22.7910572 L22.3395529,20.3243019 L21.4029567,20.3243019 L21.4029567,25.9361702 L22.3395529,25.9361702 L22.3395529,23.5426467 L24.8487055,23.5426467 L24.8487055,25.9361702 L25.7853017,25.9361702 Z M27.9013152,23.8085938 L29.1154214,23.8085938 C29.7346828,23.8085938 30.2196781,23.6499264 30.5704216,23.3325871 C30.9211651,23.0152477 31.0965342,22.5932055 31.0965342,22.0664478 C31.0965342,21.5448292 30.9211651,21.1240718 30.5704216,20.8041629 C30.2196781,20.4842539 29.7346828,20.3243019 29.1154214,20.3243019 L26.9647191,20.3243019 L26.9647191,25.9361702 L27.9013152,25.9361702 L27.9013152,23.8085938 Z" id="Combined-Shape" fill="#FFFFFF" mask="url(#mask-5)"></path>
                <path d="M17.3135389,23.0570042 L18.527645,23.0570042 C18.8745342,23.0570042 19.1353396,22.9645018 19.310069,22.7794943 C19.4847984,22.5944867 19.5721617,22.3593764 19.5721617,22.0741564 C19.5721617,21.7889364 19.4847984,21.5512566 19.310069,21.36111 C19.1353396,21.1709633 18.8745342,21.0758914 18.527645,21.0758914 L17.3135389,21.0758914 L17.3135389,23.0570042 Z" id="Path" fill="#FFFFFF" mask="url(#mask-5)"></path>
                <path d="M27.9013152,23.0570042 L29.1154214,23.0570042 C29.4623106,23.0570042 29.723116,22.9645018 29.8978453,22.7794943 C30.0725747,22.5944867 30.1599381,22.3593764 30.1599381,22.0741564 C30.1599381,21.7889364 30.0725747,21.5512566 29.8978453,21.36111 C29.723116,21.1709633 29.4623106,21.0758914 29.1154214,21.0758914 L27.9013152,21.0758914 L27.9013152,23.0570042 Z" id="Path" fill="#FFFFFF" mask="url(#mask-5)"></path>
            </g>
        </g>
    </g>
</svg>