<?xml version="1.0" encoding="UTF-8"?>
<svg width="28px" height="28px" viewBox="0 0 28 28" version="1.1" xmlns="http://www.w3.org/2000/svg" xmlns:xlink="http://www.w3.org/1999/xlink">
    <!-- Generator: Sketch 48.1 (47250) - http://www.bohemiancoding.com/sketch -->
    <title>slack-hover@1x</title>
    <desc>Created with Sketch.</desc>
    <defs></defs>
    <g id="组件" stroke="none" stroke-width="1" fill="none" fill-rule="evenodd" transform="translate(-167.000000, -129.000000)">
        <g id="slack-hover" transform="translate(167.000000, 129.000000)">
            <circle id="Oval-2" fill="#6626AF" cx="14" cy="14" r="12"></circle>
            <path d="M14,27 C21.1797017,27 27,21.1797017 27,14 C27,6.82029825 21.1797017,1 14,1 C6.82029825,1 1,6.82029825 1,14 C1,21.1797017 6.82029825,27 14,27 Z M14,28 C6.2680135,28 0,21.7319865 0,14 C0,6.2680135 6.2680135,0 14,0 C21.7319865,0 28,6.2680135 28,14 C28,21.7319865 21.7319865,28 14,28 Z" id="Oval" fill="#6626AF" fill-rule="nonzero"></path>
            <path d="M20.5983201,13.4612879 C20.9952592,13.4612879 21.3265753,13.5910697 21.5922684,13.8506332 C21.8579615,14.1101967 21.990808,14.4354522 21.990808,14.8263997 C21.990808,15.4480704 21.6931037,15.8646538 21.0976951,16.07615 L19.4459163,16.6433443 L19.9837047,18.2487927 C20.0285204,18.3833811 20.0509283,18.5339921 20.0509283,18.7006254 C20.0509283,19.078755 19.9164811,19.4056127 19.6475869,19.6811987 C19.3786927,19.9567846 19.0553794,20.0945776 18.6776471,20.0945776 C18.3767416,20.0945776 18.1030457,20.0080564 17.8565593,19.8350141 C17.610073,19.6619718 17.438813,19.4312486 17.3427793,19.1428447 L16.8145942,17.5566233 L13.837551,18.5756504 L14.3657361,20.1522584 C14.4169541,20.3060738 14.442563,20.4566847 14.442563,20.6040912 C14.442563,20.9822207 14.3081159,21.3090785 14.0392217,21.5846644 C13.7703275,21.8602504 13.4438131,21.9980433 13.0596785,21.9980433 C12.758773,21.9980433 12.4866777,21.9115222 12.2433924,21.7384798 C12.0001072,21.5654375 11.8304477,21.3347144 11.7344141,21.0463105 L11.206229,19.479316 L9.73691413,19.9888295 C9.55124907,20.0465103 9.39119299,20.0753507 9.25674588,20.0753507 C8.86620903,20.0753507 8.54129518,19.9471712 8.28200432,19.6908121 C8.02271346,19.4344531 7.89306803,19.1107999 7.89306803,18.7198524 C7.89306803,18.4186305 7.98109888,18.146249 8.15716057,17.902708 C8.33322227,17.6591669 8.56210247,17.4893291 8.84380118,17.3931944 L10.3419261,16.8836809 L9.3335728,13.8746669 L7.83544784,14.3937939 C7.66898951,14.4450657 7.51533567,14.4707016 7.37448632,14.4707016 C6.99035171,14.4707016 6.66703842,14.3409198 6.40454644,14.0813563 C6.14205446,13.8217928 6.01080847,13.4997418 6.01080847,13.1152033 C6.01080847,12.8139814 6.09883932,12.5416 6.27490101,12.2980589 C6.4509627,12.0545178 6.67984291,11.88468 6.96154162,11.7885453 L8.46926994,11.2790318 L7.96029159,9.75049111 C7.90907364,9.5966757 7.88346467,9.44606477 7.88346467,9.29865834 C7.88346467,8.9141198 8.01791178,8.58565981 8.286806,8.31327835 C8.55570022,8.04089689 8.88221464,7.90470616 9.26634924,7.90470616 C9.56725468,7.90470616 9.83935003,7.99122733 10.0826353,8.16426967 C10.3259205,8.33731201 10.49558,8.56803513 10.5916136,8.85643902 L11.1101953,10.3945932 L14.0872385,9.38517951 L13.5686568,7.84702538 C13.5174389,7.69320997 13.4918299,7.54259904 13.4918299,7.39519261 C13.4918299,7.01706305 13.6278776,6.6902053 13.8999729,6.41461935 C14.1720683,6.1390334 14.4969821,6.00124043 14.8747145,6.00124043 C15.1756199,6.00124043 15.4493158,6.08936384 15.6958022,6.26561067 C15.9422886,6.4418575 16.1135486,6.67097837 16.2095822,6.95297329 L16.7185606,8.50074088 L18.2743057,7.9720004 C18.4087528,7.93354655 18.5464011,7.91431962 18.6872504,7.91431962 C19.071385,7.91431962 19.3995,8.04089689 19.6715953,8.29405142 C19.9436907,8.54720596 20.0797384,8.862848 20.0797384,9.24097756 C20.0797384,9.52938145 19.9837047,9.79054721 19.7916374,10.0244748 C19.5995701,10.2584024 19.3626871,10.4234335 19.0809884,10.5195682 L17.5732601,11.0386952 L18.5816134,14.0765496 L20.1565653,13.5381956 C20.3102191,13.4869238 20.4574707,13.4612879 20.5983201,13.4612879 Z M12.9732482,15.9800153 L15.9502914,14.9706017 L14.941938,11.9423607 L11.9648948,12.9710013 L12.9732482,15.9800153 Z" id="Shape" fill="#FFFFFF" fill-rule="nonzero"></path>
        </g>
    </g>
</svg>