<?xml version="1.0" encoding="UTF-8"?>
<svg width="26px" height="26px" viewBox="0 0 26 26" version="1.1" xmlns="http://www.w3.org/2000/svg" xmlns:xlink="http://www.w3.org/1999/xlink">
    <!-- Generator: Sketch 48.1 (47250) - http://www.bohemiancoding.com/sketch -->
    <title>stack-overflow@1x</title>
    <desc>Created with Sketch.</desc>
    <defs></defs>
    <g id="组件" stroke="none" stroke-width="1" fill="none" fill-rule="evenodd" transform="translate(-78.000000, -226.000000)">
        <g id="stack-overflow" transform="translate(77.000000, 225.000000)">
            <path d="M14,28 C6.2680135,28 0,21.7319865 0,14 C0,6.2680135 6.2680135,0 14,0 C21.7319865,0 28,6.2680135 28,14 C28,21.7319865 21.7319865,28 14,28 Z" id="Path"></path>
            <path d="M14,27 C6.82029825,27 1,21.1797017 1,14 C1,6.82029825 6.82029825,1 14,1 C21.1797017,1 27,6.82029825 27,14 C27,21.1797017 21.1797017,27 14,27 Z M14,26 C20.627417,26 26,20.627417 26,14 C26,7.372583 20.627417,2 14,2 C7.372583,2 2,7.372583 2,14 C2,20.627417 7.372583,26 14,26 Z M8.55848282,19.2576834 L18.4092888,19.2576834 L18.4092888,15.0642471 L19.8190642,15.0642471 L19.8190642,20.6554956 L7.14870738,20.6554956 L7.14870738,15.0642471 L8.55848282,15.0642471 L8.55848282,19.2576834 Z M10.1092358,14.6798488 L10.400002,13.3082457 L17.2990906,14.7497394 L17.0083244,16.1126062 L10.1092358,14.6798488 Z M11.0167788,11.412463 L11.6071222,10.1369595 L17.9951672,13.0985739 L17.4048237,14.3653411 L11.0167788,11.412463 Z M12.7878092,8.30233111 L13.686541,7.22776306 L19.0965543,11.7094981 L18.1978224,12.7840662 L12.7878092,8.30233111 Z M16.2858145,5.00000002 L20.4887075,10.5999847 L19.3608872,11.438672 L15.1579941,5.83868728 L16.2858145,5.00000002 Z M9.95944719,17.851135 L9.95944719,16.4620593 L17.0083244,16.4620593 L17.0083244,17.851135 L9.95944719,17.851135 Z" id="Combined-Shape" fill="#FFFFFF"></path>
        </g>
    </g>
</svg>