<?xml version="1.0" encoding="UTF-8"?>
<svg width="28px" height="28px" viewBox="0 0 28 28" version="1.1" xmlns="http://www.w3.org/2000/svg" xmlns:xlink="http://www.w3.org/1999/xlink">
    <!-- Generator: Sketch 48.1 (47250) - http://www.bohemiancoding.com/sketch -->
    <title>stack-overflow@1x</title>
    <desc>Created with Sketch.</desc>
    <defs></defs>
    <g id="组件" stroke="none" stroke-width="1" fill="none" fill-rule="evenodd" transform="translate(-77.000000, -225.000000)">
        <g id="stack-overflow" transform="translate(77.000000, 225.000000)">
            <circle id="Oval-2" fill="#443D4E" cx="14" cy="14" r="12"></circle>
            <path d="M14,27 C21.1797017,27 27,21.1797017 27,14 C27,6.82029825 21.1797017,1 14,1 C6.82029825,1 1,6.82029825 1,14 C1,21.1797017 6.82029825,27 14,27 Z M14,28 C6.2680135,28 0,21.7319865 0,14 C0,6.2680135 6.2680135,0 14,0 C21.7319865,0 28,6.2680135 28,14 C28,21.7319865 21.7319865,28 14,28 Z" id="Oval" fill="#443D4E" fill-rule="nonzero"></path>
            <path d="M18.2681793,19.2576834 L8.41737341,19.2576834 L8.41737341,15.0642471 L7.00759797,15.0642471 L7.00759797,20.6554956 L19.6779548,20.6554956 L19.6779548,15.0642471 L18.2681793,15.0642471 L18.2681793,19.2576834 Z M9.9681264,14.6798488 L10.2588926,13.3082457 L17.1579812,14.7497394 L16.867215,16.1126062 L9.9681264,14.6798488 Z M10.8756693,11.412463 L11.4660128,10.1369595 L17.8540578,13.0985739 L17.2637143,14.3653411 L10.8756693,11.412463 Z M12.6466997,8.30233111 L13.5454316,7.22776306 L18.9554449,11.7094981 L18.056713,12.7840662 L12.6466997,8.30233111 Z M16.1447051,5.00000002 L20.3475981,10.5999847 L19.2197778,11.438672 L15.0168847,5.83868728 L16.1447051,5.00000002 Z M9.81833777,17.851135 L9.81833777,16.4620593 L16.867215,16.4620593 L16.867215,17.851135 L9.81833777,17.851135 Z" id="Shape" fill="#FFFFFF" fill-rule="nonzero"></path>
        </g>
    </g>
</svg>