<?xml version="1.0" encoding="UTF-8"?>
<svg width="57px" height="56px" viewBox="0 0 57 56" version="1.1" xmlns="http://www.w3.org/2000/svg" xmlns:xlink="http://www.w3.org/1999/xlink">
    <!-- Generator: Sketch 48.1 (47250) - http://www.bohemiancoding.com/sketch -->
    <title>星星</title>
    <desc>Created with Sketch.</desc>
    <defs></defs>
    <g id="openpitrix官网页面-copy-11" stroke="none" stroke-width="1" fill="none" fill-rule="evenodd" transform="translate(-74.000000, -3051.000000)">
        <g id="星星" transform="translate(68.000000, 3045.000000)">
            <rect id="Rectangle-76" x="0" y="0" width="68" height="68"></rect>
            <path d="M27.1881761,41.6518915 L15.2037271,48.1221036 C14.7177452,48.3844774 14.111083,48.2032073 13.8487091,47.7172254 C13.743148,47.5216999 13.705715,47.2965854 13.7423194,47.0774201 L16.0379287,33.3326774 L6.28937637,23.574377 C5.89904728,23.1836577 5.89936368,22.5504928 6.29008308,22.1601637 C6.44152796,22.0088701 6.63752601,21.9101681 6.84925024,21.8785745 L20.2969442,19.8719061 L26.2868612,7.40827905 C26.5260914,6.9104966 27.1235582,6.70089855 27.6213406,6.94012872 C27.8260201,7.03849602 27.9911237,7.20359954 28.0894909,7.40827905 L34.079408,19.8719061 L47.5271019,21.8785745 C48.0733387,21.9600841 48.4500745,22.4689731 48.368565,23.0152099 C48.3369714,23.2269341 48.2382694,23.4229322 48.0869758,23.574377 L38.3384235,33.3326774 L40.6340328,47.0774201 C40.7250136,47.6221594 40.3571697,48.1375124 39.8124304,48.2284933 C39.593265,48.2650977 39.3681506,48.2276646 39.1726251,48.1221036 L27.1881761,41.6518915 Z" id="Star-2-Copy" fill="#EDAD15"></path>
            <path d="M46.8648593,56.4668862 L38.3323645,61.0734434 C37.8463826,61.3358172 37.2397204,61.1545471 36.9773465,60.6685652 C36.8717855,60.4730397 36.8343524,60.2479253 36.8709568,60.0287599 L38.5073015,50.2313014 L31.5514389,43.2684833 C31.1611098,42.8777639 31.1614262,42.244599 31.5521456,41.8542699 C31.7035905,41.7029763 31.8995885,41.6042743 32.1113127,41.5726807 L41.6996045,40.1419133 L45.9635444,31.2696441 C46.2027746,30.7718616 46.8002413,30.5622636 47.2980238,30.8014938 C47.5027033,30.899861 47.6678068,31.0649646 47.7661741,31.2696441 L52.030114,40.1419133 L61.6184058,41.5726807 C62.1646426,41.6541903 62.5413784,42.1630793 62.4598688,42.7093161 C62.4282753,42.9210403 62.3295732,43.1170384 62.1782797,43.2684833 L55.222417,50.2313014 L56.8587617,60.0287599 C56.9497426,60.5734992 56.5818987,61.0888522 56.0371593,61.1798331 C55.8179939,61.2164375 55.5928795,61.1790044 55.397354,61.0734434 L46.8648593,56.4668862 Z" id="Star-2" fill="#F6CC67"></path>
        </g>
    </g>
</svg>