<?xml version="1.0" encoding="UTF-8"?>
<svg width="28px" height="28px" viewBox="0 0 28 28" version="1.1" xmlns="http://www.w3.org/2000/svg" xmlns:xlink="http://www.w3.org/1999/xlink">
    <!-- Generator: Sketch 48.1 (47250) - http://www.bohemiancoding.com/sketch -->
    <title>twitter@1x</title>
    <desc>Created with Sketch.</desc>
    <defs></defs>
    <g id="组件" stroke="none" stroke-width="1" fill="none" fill-rule="evenodd" transform="translate(-77.000000, -177.000000)">
        <g id="twitter" transform="translate(77.000000, 177.000000)">
            <circle id="Oval-2" fill="#443D4E" cx="14" cy="14" r="12"></circle>
            <path d="M14,27 C21.1797017,27 27,21.1797017 27,14 C27,6.82029825 21.1797017,1 14,1 C6.82029825,1 1,6.82029825 1,14 C1,21.1797017 6.82029825,27 14,27 Z M14,28 C6.2680135,28 0,21.7319865 0,14 C0,6.2680135 6.2680135,0 14,0 C21.7319865,0 28,6.2680135 28,14 C28,21.7319865 21.7319865,28 14,28 Z" id="Oval" fill="#443D4E" fill-rule="nonzero"></path>
            <path d="M22,9.44745538 C21.4478968,9.70076007 20.8527725,9.86721745 20.2361377,9.94682749 C20.8671128,9.56325182 21.3546845,8.95532056 21.58413,8.22435557 C20.9890057,8.58621943 20.3293499,8.83952412 19.6338432,8.98426965 C19.0673996,8.36186384 18.2715105,8 17.3680688,8 C15.6830784,8 14.3064054,9.38955717 14.3064054,11.1047918 C14.3064054,11.3508592 14.335086,11.5896893 14.3852772,11.8140449 C11.832696,11.683774 9.55975144,10.4461996 8.04684512,8.57174487 C7.78154875,9.02769331 7.63097513,9.56325182 7.63097513,10.1277594 C7.63097513,11.2061137 8.16873804,12.1614342 9.00047801,12.70423 C8.49139578,12.70423 8.01816443,12.5594845 7.60229446,12.3423662 C7.60229446,12.3423662 7.60229446,12.3423662 7.60229446,12.364078 C7.60229446,13.8694316 8.66347991,15.1287178 10.0688336,15.4109716 C9.81070745,15.4833443 9.53824092,15.5195307 9.25860421,15.5195307 C9.06500956,15.5195307 8.87141492,15.4978189 8.68499043,15.4616325 C9.07217972,16.6847323 10.1978967,17.5966292 11.5530593,17.618341 C10.5062142,18.4578652 9.1797323,18.95 7.73135755,18.95 C7.4875717,18.95 7.24378584,18.9355254 7,18.9065763 C8.36233269,19.7895241 9.98279158,20.3033708 11.7179732,20.3033708 C17.3680688,20.3033708 20.4727533,15.5701917 20.4727533,11.4666556 C20.4727533,11.3291474 20.4727533,11.1988764 20.4655832,11.0613681 C21.0678776,10.6271315 21.58413,10.0770985 22,9.44745538 Z" id="Shape" fill="#FFFFFF" fill-rule="nonzero"></path>
        </g>
    </g>
</svg>