<?xml version="1.0" encoding="UTF-8"?>
<svg width="69px" height="69px" viewBox="0 0 69 69" version="1.1" xmlns="http://www.w3.org/2000/svg" xmlns:xlink="http://www.w3.org/1999/xlink">
    <!-- Generator: Sketch 48.1 (47250) - http://www.bohemiancoding.com/sketch -->
    <title>weindos</title>
    <desc>Created with Sketch.</desc>
    <defs>
        <linearGradient x1="50%" y1="0%" x2="50%" y2="100%" id="linearGradient-1">
            <stop stop-color="#1D324C" offset="0%"></stop>
            <stop stop-color="#1A2531" offset="100%"></stop>
        </linearGradient>
        <rect id="path-2" x="0" y="0" width="52.9408" height="52.9408" rx="9.0112"></rect>
        <filter x="-24.6%" y="-20.8%" width="149.1%" height="149.1%" filterUnits="objectBoundingBox" id="filter-3">
            <feOffset dx="0" dy="2" in="SourceAlpha" result="shadowOffsetOuter1"></feOffset>
            <feGaussianBlur stdDeviation="4" in="shadowOffsetOuter1" result="shadowBlurOuter1"></feGaussianBlur>
            <feColorMatrix values="0 0 0 0 0.0196078431   0 0 0 0 0.00392156863   0 0 0 0 0.0392156863  0 0 0 0.2 0" type="matrix" in="shadowBlurOuter1"></feColorMatrix>
        </filter>
        <linearGradient x1="50%" y1="100%" x2="50%" y2="-13.10024%" id="linearGradient-4">
            <stop stop-color="#FFFFFF" stop-opacity="0" offset="0%"></stop>
            <stop stop-color="#FFFFFF" offset="100%"></stop>
        </linearGradient>
    </defs>
    <g id="openpitrix官网页面" stroke="none" stroke-width="1" fill="none" fill-rule="evenodd" transform="translate(-388.000000, -4836.000000)">
        <g id="weindos" transform="translate(396.000000, 4842.000000)">
            <g id="Rectangle-14">
                <use fill="black" fill-opacity="1" filter="url(#filter-3)" xlink:href="#path-2"></use>
                <use fill="url(#linearGradient-1)" fill-rule="evenodd" xlink:href="#path-2"></use>
            </g>
            <text id="Windows-Docker" font-family="Roboto-Medium, Roboto" font-size="7.8848" font-weight="400" fill="#FFFFFF">
                <tspan x="10.367775" y="37.4128">Windows</tspan>
                <tspan x="14.0657" y="46.4128">Docker</tspan>
            </text>
            <path d="M10.1376,16.896 L25.8499738,22.9621181 L42.24,16.896 L42.24,28.9748127 C42.24,29.9117219 41.6601229,30.7508295 40.7837319,31.0820964 L26.6636353,36.4193498 C26.1400323,36.6172665 25.5615,36.6131627 25.0407573,36.407838 L11.5640538,31.0940812 C10.7033134,30.7546982 10.1376,29.9235417 10.1376,28.9983093 L10.1376,16.896 Z" id="Rectangle-37" fill="url(#linearGradient-4)"></path>
            <path d="M25.8499738,8.09911822 L40.9263921,14.3467664 C41.2137431,14.4658443 41.3501553,14.7953199 41.2310775,15.0826708 C41.1715632,15.2262869 41.055333,15.3389159 40.9099156,15.3938822 L25.8499738,21.0863875 L11.4057532,15.3911465 C11.1163875,15.2770519 10.9743022,14.9499827 11.0883968,14.660617 C11.1433164,14.5213302 11.2514373,14.4096441 11.3888696,14.3502361 L25.8499738,8.09911822 Z" id="Rectangle-37-Copy" fill="#FFFFFF"></path>
        </g>
    </g>
</svg>